The_View_Jennifer_Aniston_720p_20110210_TTL.avi
Format                          : AVI
Format/Info                      : Audio Video Interleave
File size                        : 467 MiB
Duration                         : 29mn 5s
Overall bit rate                 : 2 245 Kbps
Director                         : created.with.SUPER(C).v2010.bld.37
Writing application              : SUPER(C) - by eRightSoft

Video
ID                               : 0
Format                           : MPEG-4 Visual
Format profile                   : Advanced Simple@L5
Format settings, BVOP            : Yes
Format settings, QPel            : No
Format settings, GMC             : No warppoints
Format settings, Matrix          : Default (MPEG)
Codec ID                         : XVID
Codec ID/Hint                    : XviD
Duration                         : 14mn 32s
Bit rate                         : 4 364 Kbps
Width                            : 1 280 pixels
Height                           : 720 pixels
Display aspect ratio             : 16:9
Frame rate                       : 29.970 fps
Resolution                       : 8 bits
Colorimetry                      : 4:2:0
Scan type                        : Progressive
Bits/(Pixel*Frame)               : 0.158
Stream size                      : 454 MiB (97%)
Writing library                  : XviD 1.1.2 (UTC 2006-11-01)

Audio
ID                               : 1
Format                           : MPEG Audio
Format version                   : Version 2
Format profile                   : Layer 3
Codec ID                         : 55
Codec ID/Hint                    : MP3
Duration                         : 29mn 5s
Bit rate mode                    : Constant
Bit rate                         : 112 Kbps
Channel(s)                       : 2 channels
Sampling rate                    : 22.05 KHz
Video delay                      : 33ms
Stream size                      : 11.7 MiB (2%)
Alignment                        : Aligned on interleaves
Interleave, duration             : 26 ms (0.78 video frame)
Interleave, preload duration     : 522 ms
Writing library                  : LAME3.97UUUUU ùÒt`

